<svg width="10" height="7" viewBox="0 0 10 7" fill="none" xmlns="http://www.w3.org/2000/svg">
<path d="M4.50494 6.28498L0.204933 1.75898C0.0732125 1.61727 0 1.43096 0 1.23748C0 1.04401 0.0732125 0.857698 0.204933 0.715984C0.268199 0.647962 0.344811 0.593708 0.429977 0.55661C0.515144 0.519512 0.60704 0.500366 0.699936 0.500366C0.792832 0.500366 0.884728 0.519512 0.969894 0.55661C1.05506 0.593708 1.13167 0.647962 1.19494 0.715984L4.99994 4.71598L8.80494 0.715984C8.86821 0.647962 8.94481 0.593708 9.02998 0.55661C9.11514 0.519512 9.20704 0.500366 9.29993 0.500366C9.39283 0.500366 9.48473 0.519512 9.5699 0.55661C9.65507 0.593708 9.73167 0.647962 9.79494 0.715984C9.92637 0.857643 9.9994 1.04374 9.9994 1.23698C9.9994 1.43023 9.92637 1.61633 9.79494 1.75798L5.49493 6.28399C5.43167 6.35201 5.35506 6.40626 5.2699 6.44336C5.18473 6.48046 5.09283 6.4996 4.99994 6.4996C4.90704 6.4996 4.81514 6.48046 4.72997 6.44336C4.64481 6.40626 4.5682 6.35201 4.50494 6.28399V6.28498Z" fill="#5F6C7B"/>
</svg>