<svg width="15" height="16" viewBox="0 0 15 16" fill="none" xmlns="http://www.w3.org/2000/svg">
	<path opacity="0.5" d="M14.824 13.918L10.652 9.70399C11.5961 8.51132 12.0471 7.00213 11.9122 5.48701C11.7774 3.97188 11.0668 2.56609 9.92691 1.55895C8.78698 0.551796 7.30436 0.0199091 5.78416 0.0727435C4.26396 0.125578 2.82185 0.759114 1.75459 1.84297C0.68733 2.92683 0.0761278 4.37856 0.0467634 5.89939C0.0173989 7.42022 0.572106 8.89446 1.59673 10.0187C2.62135 11.143 4.03794 11.8317 5.55497 11.9432C7.07199 12.0546 8.57404 11.5804 9.752 10.618L13.895 14.804C14.0122 14.9269 14.1734 14.9983 14.3432 15.0027C14.5131 15.007 14.6777 14.9438 14.801 14.827C14.9239 14.7091 14.9952 14.5475 14.9995 14.3772C15.0038 14.207 14.9407 14.042 14.824 13.918ZM5.98 10.672C4.89379 10.6719 3.8412 10.2952 3.00159 9.60611C2.16198 8.91698 1.58728 7.95805 1.37543 6.8927C1.16358 5.82735 1.32767 4.7215 1.83976 3.76358C2.35184 2.80565 3.18023 2.05492 4.18378 1.63929C5.18733 1.22367 6.30394 1.16886 7.34336 1.48422C8.38278 1.79958 9.28071 2.46559 9.88413 3.36876C10.4876 4.27194 10.7592 5.35641 10.6526 6.43738C10.5461 7.51836 10.0681 8.52896 9.3 9.29699C8.86496 9.73425 8.34754 10.0809 7.77767 10.3169C7.20781 10.5529 6.5968 10.6736 5.98 10.672Z" fill="#5F6C7B" />
</svg>
